{"title":"The White Queen S01E09 HDTV 480p x264 AAC E-Subs [GWC].mp4","uid":8805610,"size":133557636,"categoryP":"video","categoryS":"tv_shows","magnet":"?xt=urn:btih:3184d99658ca3d15aa2cf8fea9016fe184ce3bb1&amp;dn=The+White+Queen+S01E09+HDTV+480p+x264+AAC+E-Subs+%5BGWC%5D.mp4&amp;tr=udp%3A%2F%2Ftracker.openbittorrent.com%3A80&amp;tr=udp%3A%2F%2Fopen.demonii.com%3A1337&amp;tr=udp%3A%2F%2Ftracker.coppersurfer.tk%3A6969&amp;tr=udp%3A%2F%2Fexodus.desync.com%3A6969","seeders":6,"leechers":1,"uploader":"canc232","files":1,"time":1376323060,"description":"The White Queen S01E09 HDTV 480p x264 AAC E-Subs [GWC]\n\nEpisode Title  - The Princes in the Tower\n\nSummary:\nThe future of the princes in the Tower is in Richard's hands: they are a threat to his reign but also to Margaret's hopes of seeing her son Henry Tudor on the throne. As Margaret plots the boys' removal, Anne is tormented by fears she has unwittingly sealed the princes' fate. Elizabeth, in sanctuary, is horrified to realise she has made a pact with her enemies and turns to witchcraft to punish the guilty.\n\n\nSCREENS :\n &lt;a href=&quot;\nhttp://imageshack.us/a/img713/2415/sk6l.jpg&quot; rel=&quot;nofollow&quot; target=&quot;_NEW&quot;&gt;\nhttp://imageshack.us/a/img713/2415/sk6l.jpg&lt;/a&gt; &lt;a href=&quot;\nhttp://imageshack.us/a/img266/4393/ct7m.jpg&quot; rel=&quot;nofollow&quot; target=&quot;_NEW&quot;&gt;\nhttp://imageshack.us/a/img266/4393/ct7m.jpg&lt;/a&gt; &lt;a href=&quot;\nhttp://imageshack.us/a/img268/1862/20zm.jpg&quot; rel=&quot;nofollow&quot; target=&quot;_NEW&quot;&gt;\nhttp://imageshack.us/a/img268/1862/20zm.jpg&lt;/a&gt;\n\nMEDIA INFO :\n\nGeneral \nFormat : MPEG-4 \nFormat profile : Base Media \nCodec ID : isom \nFile size : 127 MiB \nDuration : 58mn 39s \nOverall bit rate mode : Variable \nOverall bit rate : 304 Kbps\n\nVideo \nID : 201 \nFormat : AVC \nFormat/Info : Advanced Video Codec \nFormat profile : &lt;a class=&quot;__cf_email__&quot; href=&quot;/cdn-cgi/l/email-protection&quot; data-cfemail=&quot;f3bb9a949bb3bfc0ddc3&quot;&gt;[email&amp;#160;protected]&lt;/a&gt;&lt;script cf-hash='f9e31' type=&quot;text/javascript&quot;&gt;\n/* &lt;![CDATA[ */!function(){try{var t=&quot;currentScript&quot;in document?document.currentScript:function(){for(var t=document.getElementsByTagName(&quot;script&quot;),e=t.length;e--;)if(t[e].getAttribute(&quot;cf-hash&quot;))return t[e]}();if(t&amp;&amp;t.previousSibling){var e,r,n,i,c=t.previousSibling,a=c.getAttribute(&quot;data-cfemail&quot;);if(a){for(e=&quot;&quot;,r=parseInt(a.substr(0,2),16),n=2;a.length-n;n+=2)i=parseInt(a.substr(n,2),16)^r,e+=String.fromCharCode(i);e=document.createTextNode(e),c.parentNode.replaceChild(e,c)}}}catch(u){}}();/* ]]&gt; */&lt;/script&gt; \nFormat settings, CABAC : Yes \nDuration : 58mn 31s \nBit rate : 245 Kbps \nMaximum bit rate : 1 499 Kbps \nWidth : 720 pixels \nHeight : 404 pixels \nDisplay aspect ratio : 16:9 \nFrame rate mode : Constant \nFrame rate : 25.000 fps\nStream size : 103 MiB (80%) \nTitle : The White Queen S01E09 HDTV 480p x264 AAC E-Subs [GWC] \nWriting library : x264 core\nLanguage : English\n\nAudio \nID : 1 \nFormat : AAC  \nFormat profile : HE-AAC / LC \nCodec ID : 40 \nDuration : 58mn 31s \nBit rate mode : Variable \nSampling rate : 44.1 KHz / 22.05 KHz \nStream size : 23.4 MiB (18%) \nTitle : The White Queen S01E09 HDTV 480p x264 AAC E-Subs [GWC] \nLanguage : English\n\nText \nID : 202 \nFormat : Timed Text \nDuration : 58mn 39s \nDelay relative to video : 80ms \nStream size : 29.0 KiB\nTitle : English Subtitle by MemoryOnSmells \nLanguage : English","torrent":{"xt":"urn:btih:3184d99658ca3d15aa2cf8fea9016fe184ce3bb1","amp;dn":"The+White+Queen+S01E09+HDTV+480p+x264+AAC+E-Subs+%5BGWC%5D.mp4","amp;tr":["udp%3A%2F%2Ftracker.openbittorrent.com%3A80","udp%3A%2F%2Fopen.demonii.com%3A1337","udp%3A%2F%2Ftracker.coppersurfer.tk%3A6969","udp%3A%2F%2Fexodus.desync.com%3A6969"],"infoHash":"3184d99658ca3d15aa2cf8fea9016fe184ce3bb1","infoHashBuffer":{"type":"Buffer","data":[49,132,217,150,88,202,61,21,170,44,248,254,169,1,111,225,132,206,59,177]},"announce":[],"urlList":[]}}